<?xml version="1.0" encoding="UTF-8"?>
<svg width="16px" height="16px" viewBox="0 0 16 16" version="1.1" xmlns="http://www.w3.org/2000/svg" xmlns:xlink="http://www.w3.org/1999/xlink">
    <!-- Generator: Sketch 47.1 (45422) - http://www.bohemiancoding.com/sketch -->
    <title>未收入</title>
    <desc>Created with Sketch.</desc>
    <defs></defs>
    <g id="icon" stroke="none" stroke-width="1" fill="none" fill-rule="evenodd" opacity="0.900000036">
        <g id="链接">
            <rect id="Path" fill="#8492A6" opacity="0" x="0" y="0" width="16" height="16"></rect>
            <path d="M9.59781731,5.82969306 C9.38511444,5.62264743 9.07248215,5.55601046 8.79383939,5.65832672 C8.51519664,5.76064299 8.31997674,6.01376079 8.29180397,6.30925478 C8.26363119,6.60474877 8.4075036,6.89019607 8.66179211,7.04332268 C8.73475225,7.10382621 8.80682263,7.16343998 8.87266471,7.23017182 L8.93494775,7.29245487 C9.73484001,8.09145736 9.49638492,9.46613316 8.69738243,10.2642459 L5.28961007,13.6720183 C4.48917412,14.4701206 3.19388442,14.4701206 2.39344846,13.6720183 L2.3293859,13.6070659 C1.53040625,12.8073402 1.53040625,11.5115198 2.3293859,10.7117941 L3.83574585,9.20632388 C4.08832318,9.00750226 4.20477498,8.6816317 4.13541082,8.36776236 C4.06604667,8.05389302 3.8231143,7.80744525 3.51027383,7.73357921 C3.19743337,7.65971317 2.86992349,7.7714715 2.66749387,8.0211665 L1.10329966,9.48392832 C-0.367657193,10.9639816 -0.367657193,13.3539887 1.10329966,14.8340419 L1.16736222,14.8972147 C2.64690307,16.3668895 5.0352657,16.3668895 6.51480655,14.8972147 L9.92346867,11.4894424 C11.3924588,10.0168932 11.5161351,7.69729467 10.0480348,6.22741479 L9.98397219,6.16513175 C9.86288247,6.04482811 9.73387581,5.93276473 9.59781731,5.82969306 Z M14.8340419,1.10418942 C13.3543902,-0.367740714 10.96358,-0.367740714 9.48392832,1.10418942 L6.07704572,4.51107202 C4.60449658,5.98095188 4.52352862,8.1056935 5.99429824,9.57824264 L6.0565813,9.64052569 C6.12331314,9.70636777 6.19271424,9.76954057 6.26389487,9.83004409 C6.31555328,9.88709081 6.37555024,9.93598834 6.44184643,9.97507461 C6.71829326,10.1338563 7.06589989,10.0942467 7.29953743,9.87734129 C7.53317497,9.66043587 7.59845845,9.31672472 7.46061909,9.02926208 C7.36541501,8.81216117 7.18568393,8.68136677 7.06022808,8.55769045 L6.99794504,8.49540741 C6.20072206,7.69640491 6.50412947,6.53527099 7.30313196,5.7362685 L10.7126838,2.32849614 C11.5124095,1.52951649 12.80823,1.52951649 13.6079557,2.32849614 L13.6702387,2.39077918 C14.470131,3.18978168 14.470131,4.49060758 13.6702387,5.28694081 L12.1692173,6.79063148 C11.9100235,6.98270756 11.7855811,7.30755282 11.8501065,7.62364001 C11.9146319,7.93972721 12.1564385,8.1898071 12.4701769,8.26492592 C12.7839154,8.34004474 13.1127618,8.22659708 13.3134458,7.97400934 L14.8945455,6.51480655 C16.3662695,5.03576401 16.3662695,2.64551501 14.8945455,1.16647246 L14.8322624,1.10329966 L14.8340419,1.10418942 Z" id="Shape" fill="#DB99DF" fill-rule="nonzero"></path>
        </g>
    </g>
</svg>